<svg width="19" height="19" viewBox="0 0 19 19" fill="none" xmlns="http://www.w3.org/2000/svg">
<g id="Group 257">
<path id="Vector" d="M18.3095 7.74414H17.5844V7.70679H9.48339V11.3073H14.5704C13.8283 13.4032 11.834 14.9077 9.48339 14.9077C6.50086 14.9077 4.0827 12.4896 4.0827 9.50702C4.0827 6.52448 6.50086 4.10632 9.48339 4.10632C10.8601 4.10632 12.1126 4.62569 13.0663 5.47405L15.6123 2.92807C14.0047 1.42983 11.8543 0.505859 9.48339 0.505859C4.5125 0.505859 0.482231 4.53613 0.482231 9.50702C0.482231 14.4779 4.5125 18.5082 9.48339 18.5082C14.4543 18.5082 18.4846 14.4779 18.4846 9.50702C18.4846 8.90349 18.4224 8.31437 18.3095 7.74414Z" fill="#FFC107"/>
<path id="Vector_2" d="M1.52007 5.31743L4.4774 7.48626C5.2776 5.5051 7.21555 4.10632 9.48339 4.10632C10.8601 4.10632 12.1126 4.62569 13.0663 5.47405L15.6123 2.92807C14.0047 1.42983 11.8543 0.505859 9.48339 0.505859C6.02605 0.505859 3.02776 2.45776 1.52007 5.31743Z" fill="#FF3D00"/>
<path id="Vector_3" d="M9.48339 18.5082C11.8084 18.5082 13.921 17.6184 15.5182 16.1715L12.7324 13.8141C11.7983 14.5244 10.6569 14.9086 9.48339 14.9077C7.14219 14.9077 5.15429 13.4149 4.40539 11.3315L1.47011 13.5931C2.9598 16.5081 5.98509 18.5082 9.48339 18.5082Z" fill="#4CAF50"/>
<path id="Vector_4" d="M18.3095 7.74414H17.5844V7.70679H9.48339V11.3073H14.5704C14.2154 12.3048 13.5759 13.1764 12.731 13.8145L12.7324 13.8136L15.5182 16.171C15.3211 16.3502 18.4846 14.0076 18.4846 9.50702C18.4846 8.90349 18.4224 8.31437 18.3095 7.74414Z" fill="#1976D2"/>
</g>
</svg>
